<svg version="1.1" id="Layer_1" xmlns="http://www.w3.org/2000/svg" xmlns:xlink="http://www.w3.org/1999/xlink" x="0px" y="0px" enable-background="new 0 0 1024 576" xml:space="preserve" viewBox="167.83 126.62 719.08 382.97">
<path fill="#000000" opacity="1.000000" stroke="none" d=" M862.877197,434.939270   C867.869568,442.204285 873.483276,443.447510 881.161377,439.290649   C884.404541,437.534760 884.404602,437.534851 886.893127,437.647949   C885.559448,445.786194 875.486511,447.870575 861.394409,442.675110   C857.204102,452.106293 850.552551,459.614105 842.112183,465.583435   C838.096130,468.423645 833.702087,470.338196 828.832520,471.043121   C819.458069,472.400208 813.615601,467.222137 813.790161,457.826294   C813.807373,456.899628 814.422241,455.897461 813.385681,454.794830   C806.220398,459.988983 798.151672,463.447144 789.743469,466.130890   C787.060425,466.987213 785.916748,469.130432 784.534912,471.213440   C775.221863,485.251984 764.634949,497.966736 748.898315,505.300507   C741.806946,508.605316 734.453613,510.308472 726.585876,509.256348   C723.381775,508.827881 720.437378,507.709839 717.728394,506.030975   C707.334351,499.589539 706.604492,486.720398 716.307007,479.341858   C723.094482,474.180084 731.189331,471.956909 739.297302,469.990356   C749.829712,467.435852 760.560486,465.909363 771.335327,464.916718   C775.941101,464.492401 778.802734,462.778900 781.146301,458.636108   C790.660522,441.817780 800.339600,425.072968 812.293457,409.803741   C818.460327,401.926575 825.970215,395.400208 835.023682,388.488373   C817.702881,389.895782 801.862366,391.168335 787.093933,397.830658   C781.292358,400.447845 775.845886,403.716858 772.361816,409.378265   C769.499207,414.029907 769.275879,419.692078 771.799561,423.049866   C774.401001,426.511139 779.677246,427.834595 785.077515,426.380463   C792.812683,424.297546 797.650879,417.888611 797.554077,409.828613   C797.542175,408.839111 797.293091,407.819489 798.350647,406.802521   C801.944397,406.586426 801.841919,409.670197 801.972412,411.838318   C802.283203,417.001587 799.740845,421.131592 796.215271,424.655060   C789.249634,431.616638 780.904724,433.873505 771.452026,431.226410   C762.157959,428.623779 757.779480,419.847534 761.030945,410.802216   C763.729492,403.295105 769.326904,398.433777 776.147156,394.864929   C789.426941,387.916046 803.941223,385.954224 818.711304,384.374115   C815.484436,384.427765 813.522400,382.444366 811.484863,380.347656   C781.405151,349.394745 751.279236,318.486694 721.157166,287.574951   C720.603821,287.007080 719.963745,286.523743 718.438782,285.194214   C718.438782,291.549561 718.245728,296.942749 718.471680,302.318359   C719.535950,327.640686 718.630920,352.971100 718.928711,378.295227   C718.975220,382.244690 717.354553,383.941223 713.310852,384.112152   C700.272156,384.663361 700.275635,384.764709 694.467590,373.085175   C691.500000,367.117523 688.412415,361.204987 685.622925,355.155151   C684.240906,352.157715 682.281921,351.060333 679.017456,351.078400   C659.351990,351.186951 639.684937,351.213470 620.020020,351.064026   C616.410095,351.036591 614.646484,352.529694 613.246643,355.624420   C609.608704,363.667236 605.630981,371.555878 601.947021,379.578674   C600.512756,382.702301 598.409241,384.097961 594.951416,384.011292   C579.047546,383.612579 582.772583,386.601471 577.813843,371.459320   C569.676880,346.612244 561.968506,321.624939 554.023499,296.714569   C553.333740,294.552002 552.948059,292.199890 550.812988,289.827972   C549.036743,295.047913 547.341736,299.834473 545.776062,304.662872   C537.763245,329.374451 529.719910,354.076599 521.860413,378.836975   C520.656128,382.630798 518.775574,384.499207 514.732239,384.064789   C512.918579,383.869934 511.068329,383.965668 509.236206,384.003723   C506.189880,384.066925 504.472382,382.853027 503.459503,379.736755   C494.294556,351.538391 484.970673,323.391632 475.678375,295.234711   C475.162872,293.672699 474.515106,292.154266 473.784607,290.236755   C471.914551,291.570587 471.678131,293.396942 471.164673,294.994873   C462.300995,322.579834 453.357025,350.140045 444.730621,377.799225   C443.287628,382.425964 441.154144,384.233307 436.301025,384.088135   C424.685516,383.740692 424.930603,385.147491 428.799835,373.834076   C429.383148,372.128510 429.862396,370.387329 430.789307,367.356079   C407.970703,385.558746 383.401367,388.551270 358.277954,377.711121   C332.103729,366.417572 321.400116,344.129761 320.277557,316.291260   C316.318909,328.426544 312.353394,340.559601 308.403931,352.697876   C305.672913,361.091278 302.742432,369.428925 300.330475,377.913544   C298.935974,382.818939 296.230591,384.291748 291.288452,384.269104   C286.501953,384.247162 284.679443,382.254669 283.317749,377.976379   C274.226379,349.412994 264.896881,320.925293 255.596832,292.428650   C255.048050,290.747101 254.826614,288.855255 252.837799,286.977509   C249.896255,295.794067 247.029221,304.236908 244.261459,312.712189   C237.024094,334.873932 229.732834,357.019073 222.702545,379.246552   C221.331055,383.582733 218.692413,384.211487 214.812454,384.212067   C210.914246,384.212616 208.323212,383.501038 206.953995,379.196869   C194.683502,340.624542 182.262070,302.099976 169.758026,263.602600   C168.393860,259.402618 167.854645,255.257187 167.861877,250.879868   C167.925140,212.547760 167.881058,174.215500 167.887817,135.883286   C167.889420,126.809418 167.922348,126.801544 176.770233,126.799179   C208.102646,126.790794 239.438431,126.520683 270.765869,126.913483   C283.535980,127.073601 295.369385,131.158859 302.734802,142.451950   C310.903107,154.975998 311.404663,168.637970 304.891785,181.995377   C298.029175,196.069901 285.395538,201.856613 270.524170,202.125504   C244.533432,202.595490 218.527100,202.374557 192.529724,202.155228   C187.593140,202.113602 185.779129,203.398407 185.838715,208.557892   C186.013779,223.716156 185.627213,238.880142 185.649597,254.041611   C185.653702,256.824677 186.257843,259.693451 187.070908,262.375336   C195.573837,290.423065 204.173370,318.441498 212.758789,346.464172   C213.143890,347.721130 213.649979,348.941010 214.446976,351.133423   C218.058426,344.292236 219.583344,337.549316 221.751862,331.094971   C229.337906,308.516296 236.977661,285.949524 244.047592,263.207428   C246.092728,256.628754 250.561127,258.106964 255.023438,257.701599   C259.564880,257.289124 261.491394,259.334686 262.814117,263.449921   C271.577942,290.716461 280.536987,317.920319 289.466736,345.133301   C290.014557,346.802673 290.518860,348.568726 292.542297,350.267914   C295.505585,340.737732 298.375305,331.582275 301.198792,322.412659   C307.275909,302.676453 313.313202,282.928009 319.407776,263.197235   C320.452911,259.813538 320.823334,256.398041 320.818512,252.862885   C320.764252,213.197388 320.766724,173.531830 320.760559,133.866287   C320.759491,126.902916 320.862122,126.789169 327.639618,126.786850   C356.805450,126.776863 385.971283,126.793823 415.137085,126.764809   C418.819489,126.761147 422.438751,127.040375 426.042419,127.857178   C444.741089,132.095337 456.159393,145.494415 455.462128,164.976730   C454.854492,181.954025 444.718994,196.108337 428.641266,200.643433   C424.117462,201.919464 419.506775,202.368301 414.802460,202.269150   C412.549469,202.221680 410.165649,201.651566 407.768524,203.091507   C408.124664,206.009766 410.074341,208.164932 411.411194,210.563995   C416.439301,219.587204 421.627686,228.521957 426.581055,237.585495   C428.283447,240.700485 430.400116,242.178329 434.091125,242.096680   C443.085999,241.897675 452.093964,241.886688 461.086365,242.151108   C465.542206,242.282135 466.737427,240.572266 466.718872,236.286148   C466.570831,202.121140 466.629272,167.955246 466.626434,133.789612   C466.625854,126.802948 466.629852,126.790001 473.469177,126.788429   C570.299744,126.766136 667.130432,126.781754 763.960754,126.622040   C768.548218,126.614471 771.308228,128.463333 774.098755,131.646683   C786.509705,145.805161 799.077271,159.826492 811.620422,173.868637   C812.812683,175.203354 813.780518,176.874802 816.390259,177.520157   C822.778137,170.541977 829.426514,163.377319 835.963745,156.112717   C843.765442,147.442902 851.528870,138.736938 859.181946,129.936249   C861.226074,127.585526 863.478271,126.579010 866.571167,126.678658   C871.850891,126.848785 877.140137,126.725571 882.227783,126.725571   C883.301758,129.651154 881.386292,130.737411 880.278503,131.973969   C863.826660,150.337982 847.458557,168.781616 830.702271,186.865082   C826.604248,191.287552 824.631409,195.358322 824.696167,201.674194   C825.111694,242.168930 824.937073,282.669708 824.957581,323.168488   C824.967163,342.167725 824.976929,361.166962 824.997192,380.166199   C824.998230,381.141418 825.099243,382.116547 825.180664,383.575653   C832.617981,384.148285 839.844421,383.509155 847.027039,382.313690   C849.703674,381.868195 852.306763,381.514282 854.889832,382.535858   C856.147949,383.033478 857.480469,383.691620 857.197021,385.348541   C856.964783,386.705902 855.665955,387.232758 854.517639,387.141541   C840.799866,386.052155 833.601562,395.490814 827.164673,404.992096   C815.397888,422.360565 804.403992,440.252716 793.104675,457.937256   C792.947266,458.183563 793.009521,458.570129 792.963196,458.939941   C794.100037,460.357788 795.368042,459.490082 796.520752,459.033997   C805.958435,455.299805 814.389709,450.161469 820.663452,441.922150   C827.292419,433.216370 835.440552,426.480316 846.281311,423.830475   C855.726440,421.521729 860.839661,425.048096 862.877197,434.939270  M515.499756,197.181015   C506.834015,197.165497 498.163422,197.316010 489.504608,197.063110   C485.289917,196.940002 484.048492,198.558487 484.127563,202.608276   C484.345520,213.769913 484.424988,224.943253 484.141724,236.101379   C484.023834,240.746613 485.612976,242.110001 490.143219,242.098740   C538.471863,241.978653 586.801025,241.981659 635.129700,242.105042   C639.606934,242.116470 640.844788,240.479019 640.768738,236.225464   C640.551270,224.063812 640.698914,211.895737 640.692017,199.730179   C640.682434,182.898483 640.685669,166.066696 640.627502,149.235153   C640.616455,146.043442 640.787292,143.131119 635.781250,143.146713   C586.786194,143.299316 537.790344,143.245361 488.794952,143.164642   C485.338959,143.158951 484.072266,144.393539 484.129272,147.842148   C484.283569,157.172165 484.280334,166.507309 484.157898,175.838028   C484.113831,179.196564 485.248779,180.713913 488.764404,180.646881   C500.423309,180.424500 512.098450,180.667709 523.742615,180.162659   C536.411255,179.613159 536.474915,179.537842 536.389587,192.130127   C536.362122,196.179764 534.734314,197.387344 530.996582,197.244019   C526.170532,197.058945 521.332397,197.187927 515.499756,197.181015  M785.622375,327.879272   C792.589050,334.355164 799.555664,340.831055 806.422668,347.214294   C806.457886,346.918640 806.634583,346.125793 806.635254,345.332855   C806.678284,295.847168 806.695679,246.361481 806.769409,196.875870   C806.773193,194.347076 805.843628,192.468002 804.201050,190.640167   C791.063049,176.019989 777.942200,161.383743 764.927185,146.654282   C762.738525,144.177353 760.349304,143.194199 757.091370,143.231949   C746.429382,143.355545 735.758972,143.461685 725.103882,143.154465   C720.463684,143.020645 719.120483,144.583191 719.140015,149.143967   C719.289307,183.966568 719.249390,218.790253 719.146790,253.613251   C719.136658,257.053101 720.238770,259.567963 722.591919,262.015320   C743.490417,283.750305 764.296448,305.574280 785.622375,327.879272  M341.648804,299.204407   C338.904480,307.217285 338.512848,315.425018 339.040070,323.835510   C340.910431,353.671234 369.392578,373.906982 398.304138,366.068604   C439.362427,354.937103 441.405609,304.220490 420.562286,282.163574   C399.945190,260.346100 356.240448,262.268250 341.648804,299.204407  M700.894104,301.500000   C700.893494,250.710953 700.845093,199.921799 700.974121,149.133087   C700.985657,144.593826 699.675049,142.993378 695.019836,143.138855   C685.038269,143.450775 675.040344,143.228851 665.049072,143.242493   C658.308899,143.251709 658.270264,143.264664 658.267334,149.828476   C658.251953,184.464859 658.279236,219.101273 658.219116,253.737564   C658.213745,256.827087 658.888550,259.606873 660.198425,262.373779   C672.732971,288.850464 685.208557,315.355011 697.728577,341.838531   C698.446228,343.356537 699.403137,344.761414 700.894775,347.332642   C700.894775,331.452423 700.894775,316.976196 700.894104,301.500000  M465.487457,262.192627   C465.768372,258.142914 462.667816,259.205078 460.624237,259.190796   C448.962494,259.109161 437.296936,259.030975 425.638794,259.262207   C421.155029,259.351105 418.366638,258.039581 416.117859,253.850647   C407.690155,238.151642 398.760773,222.722717 390.216522,207.084900   C388.308075,203.592056 386.056702,202.071640 381.963226,202.155563   C369.639435,202.408218 357.302307,202.461456 344.980988,202.159760   C340.272400,202.044464 338.962402,203.694244 339.022644,208.168884   C339.222260,222.994003 339.056580,237.823700 339.123627,252.651199   C339.139679,256.196106 338.609863,259.540649 337.456299,262.917358   C335.958099,267.302734 333.854034,271.577820 333.514282,277.252747   C352.037079,255.748978 374.682800,248.048904 401.367004,253.803955   C428.782379,259.716736 444.163605,278.111847 450.900238,305.694458   C456.698212,290.898438 460.647308,276.802979 465.487457,262.192627  M573.208069,306.440094   C579.108154,324.540131 585.008240,342.640167 590.908325,360.740204   C591.349487,360.766785 591.790649,360.793335 592.231812,360.819916   C607.956543,327.227692 623.681274,293.635468 639.595947,259.637451   C611.905579,259.637451 585.383179,259.637451 557.874084,259.637451   C563.069275,275.458862 568.030884,290.568848 573.208069,306.440094  M186.083084,157.508514   C186.072357,164.669449 186.273453,171.839233 185.974319,178.988098   C185.783905,183.538376 187.337097,185.064255 191.958527,185.033661   C216.437683,184.871628 240.918732,185.013748 265.399078,184.994202   C268.221405,184.991959 271.083313,184.875854 273.858032,184.406052   C281.685760,183.080658 287.443787,179.147964 289.619171,171.067886   C293.449615,156.840302 285.642334,145.230133 271.014771,143.516464   C268.543518,143.226944 266.027313,143.251511 263.531799,143.249619   C242.049011,143.233307 220.566208,143.232376 199.083435,143.251480   C186.048264,143.263062 186.048279,143.282608 186.083084,157.508514  M432.313568,150.235275   C427.815552,145.418579 421.969482,143.444168 415.685211,143.390762   C391.566162,143.185837 367.444611,143.282013 343.324158,143.215408   C340.470734,143.207520 339.013428,144.196686 339.037933,147.263519   C339.127045,158.408493 339.137573,169.554520 339.094147,180.699844   C339.082916,183.583618 340.165039,184.979233 343.187012,184.966370   C368.470673,184.858673 393.757355,185.002472 419.036865,184.637131   C427.941101,184.508453 434.468903,179.120285 436.204651,171.269745   C437.787567,164.110382 437.421143,157.029221 432.313568,150.235275  M542.092346,259.411652   C522.047729,259.411652 502.003082,259.411652 481.093658,259.411652   C490.795380,291.973053 501.492554,323.200317 512.162903,355.953857   C513.246216,353.267914 513.744080,352.221954 514.097717,351.129333   C523.529053,321.993561 532.948486,292.853912 542.354248,263.709869   C542.757507,262.460266 543.271729,261.182556 542.092346,259.411652  M642.501221,334.752411   C653.362610,334.752411 664.223999,334.752411 676.009705,334.752411   C667.031860,315.240326 658.657776,297.040619 650.283752,278.840912   C649.817993,278.855713 649.352234,278.870514 648.886475,278.885345   C640.551819,297.040527 632.217102,315.195709 623.554016,334.066315   C630.291992,335.203644 635.923340,334.532654 642.501221,334.752411  M719.425903,499.938599   C724.464600,506.613403 731.352417,505.758240 738.042358,503.986389   C749.609131,500.922943 757.077576,492.198364 764.361633,483.516510   C767.788269,479.432281 771.282532,475.264526 773.945312,469.428864   C767.644409,470.127747 762.384155,470.593719 757.159180,471.315216   C746.432373,472.796478 735.777222,474.675293 726.144043,480.005859   C718.290222,484.351837 715.928345,490.998749 719.425903,499.938599  M848.800476,446.266479   C850.363953,443.127197 851.380737,439.831024 852.053162,436.376984   C852.613770,433.497253 853.313232,430.541382 850.409180,428.729156   C847.664368,427.016357 844.772034,428.242737 842.524414,430.005096   C833.210449,437.308502 826.967957,446.712524 824.408264,458.317230   C823.831543,460.931763 823.229919,464.184082 826.198425,466.037292   C828.966370,467.765259 831.657654,466.365417 834.174377,465.030609   C837.164551,463.444733 839.446045,461.030457 841.522400,458.411926   C844.320740,454.882843 846.572266,451.018188 848.800476,446.266479  z"/>
<path fill="#000000" opacity="1.000000" stroke="none" d=" M577.372253,455.870850   C582.115417,443.545044 589.933228,433.472900 596.580627,422.733276   C603.329468,411.829773 610.355835,401.096924 617.335876,390.338104   C621.363647,384.129822 622.592468,383.727600 630.182007,385.436401   C630.986572,387.764496 629.083252,389.120056 628.082520,390.686493   C615.978088,409.633728 603.780273,428.521271 591.657715,447.457001   C589.147522,451.377960 586.472168,455.283875 585.412476,459.900970   C584.079529,465.708832 586.533813,467.882690 592.151550,466.040283   C597.037598,464.437866 600.954651,461.334869 604.357117,457.614502   C608.425598,453.165924 611.730164,448.180542 614.203003,442.650085   C615.712463,439.274200 617.160095,435.980011 615.756409,432.137848   C615.380859,431.109833 615.598206,429.819550 615.714233,428.666870   C615.974060,426.085510 617.244995,424.225616 619.955200,423.867859   C622.679993,423.508209 624.290710,425.079895 625.349976,427.409454   C626.355164,429.620117 626.340149,431.964142 626.170349,434.286346   C625.899414,437.990845 626.830750,441.075928 630.706787,442.158081   C634.826721,443.308258 639.021057,443.731232 642.030762,439.622314   C644.294067,436.532471 646.495544,433.395966 648.669250,430.242126   C652.368713,424.874786 655.269531,423.867676 662.323975,425.655396   C662.831421,428.111053 661.002686,429.639038 659.827393,431.316254   C654.189331,439.362488 648.329285,447.255035 642.784851,455.364075   C640.937317,458.066284 636.867859,461.466949 639.784973,464.382477   C642.941956,467.537811 646.467896,463.428680 649.284546,461.475342   C657.183533,455.997650 663.419922,448.866943 668.642395,440.821136   C671.000000,437.188904 673.464966,433.626495 675.870667,430.025330   C679.309265,424.878143 681.788757,423.986786 689.549805,425.747223   C681.079590,438.918274 672.793396,451.803253 663.710388,465.927307   C671.823730,463.885864 677.428101,460.068451 682.920471,456.263855   C689.937744,451.403015 695.708740,445.112122 701.355042,438.748657   C702.535583,437.418182 703.408081,435.636047 705.598755,436.208649   C707.069214,438.221710 705.729065,439.521515 704.712219,440.764374   C693.755005,454.157166 680.852478,464.924652 664.057617,470.215790   C661.145142,471.133362 659.182495,472.747009 657.500061,475.172943   C651.799927,483.391968 646.023499,491.614838 637.949829,497.730530   C626.410217,506.471558 613.851257,511.184174 599.219116,506.422882   C595.040222,505.063080 591.995911,502.358551 589.896545,498.574921   C587.133789,493.595520 587.415955,488.154938 591.017090,484.101318   C594.806824,479.835419 599.715027,478.098297 605.426941,479.022736   C606.245422,479.155182 606.962891,479.645264 607.159180,480.595093   C607.198059,481.898224 606.187256,482.161407 605.256104,482.543030   C598.927612,485.136658 596.658691,488.282074 597.332947,493.493774   C598.003845,498.679199 602.988525,503.179810 608.726501,503.749725   C614.084656,504.281860 618.920593,502.723877 623.489624,500.054535   C630.988403,495.673615 636.597351,489.308105 641.752686,482.517090   C646.158447,476.713562 650.348999,470.746765 654.526794,463.262299   C650.327820,465.876221 647.601196,468.588287 644.075745,469.909943   C639.561707,471.602173 634.857544,472.789185 631.012207,468.812469   C627.003906,464.667358 628.997986,460.103943 631.133240,455.848328   C632.387329,453.348969 634.020264,451.039703 635.670410,448.337738   C631.994385,446.818939 628.172363,446.916565 625.320435,444.716187   C623.059937,445.725616 622.588440,447.830414 621.499451,449.433441   C614.221924,460.145996 604.834290,468.126038 591.910278,470.801178   C580.849915,473.090515 575.337036,467.360687 577.372253,455.870850  z"/>
</svg>